<svg version="1.2" xmlns="http://www.w3.org/2000/svg" viewBox="0 0 18 842" width="18" height="842"><style>.a{fill:#02c4ab}</style><path fill-rule="evenodd" class="a" d="m-0.1 285.8c0-0.4 0-0.7 0-1.1 0.2 0.1 0.3 0.2 0.5 0.3 2.6-2.6 5.2-5.2 7.7-7.7-1.2-1.2-2.3-2.3-3.5-3.5-1.3 1.3-2.8 2.8-4.2 4.2-0.2-0.1-0.3-0.2-0.5-0.3q0-0.6 0-1.2c0.2 0.1 0.3 0.3 0.5 0.3q1.8-1.8 3.6-3.6c-1.1-1.1-2.3-2.3-3.5-3.5-0.2 0.2-0.3 0.3-0.5 0.5q0-1 0-2.1c0.1 0.1 0.2 0.1 0.4 0.2 0-0.3 0-0.4 0-0.6 0-2 0-4.1 0-6.1 0-0.3-0.1-0.5-0.4-0.7 0-0.4 0-0.7 0-1.1 0.1 0 0.2 0.1 0.4 0.2 0-0.2 0-0.4 0-0.5q0-3 0-6c0-0.3 0-0.6-0.4-0.8 0-0.4 0-0.7 0-1.1 0.1 0 0.2 0.1 0.4 0.2q0-0.3 0-0.6 0-3 0-6c0-0.3 0-0.7-0.4-0.8 0-0.4 0-0.7 0-1.1 0.1 0 0.2 0.1 0.3 0.2q0-3.3 0-6.6c-0.2 0-0.2 0.1-0.3 0.2 0-0.7 0-1.3 0-2 0.2 0.2 0.4 0.4 0.6 0.5 1.2-1.2 2.4-2.4 3.5-3.5-1.3-1.3-2.7-2.7-4-4.2 0-0.4 0-0.7 0-1.1 0.1 0.1 0.3 0.2 0.4 0.3 1.3 1.3 2.7 2.7 4 4q0.1 0.1 0.3 0.3 1.8-1.8 3.6-3.6c-0.3-0.3-0.7-0.6-1-0.9-2.4-2.4-4.9-4.9-7.3-7.3 0-0.4 0-0.7 0-1.1 0.2 0.1 0.3 0.2 0.4 0.3 2.7 2.7 5.4 5.4 8.2 8.2q0.1 0.1 0.3 0.3c1.2-1.2 2.4-2.4 3.6-3.5-4.2-4.2-8.3-8.3-12.5-12.5 0-0.4 0-0.7 0-1.1 0.2 0.1 0.3 0.2 0.5 0.4q6.1 6.1 12.3 12.3c0.1 0.1 0.3 0.2 0.3 0.3 1.1-1.1 2.3-2.3 3.3-3.3q0 0.3 0 0.7c-1 1-1.9 2-2.9 3.1 0.9 0.9 1.9 1.9 2.9 2.9 0 0.4 0 0.7 0 1.1-0.7-0.7-1.4-1.3-2.1-2-0.5-0.5-1-1-1.4-1.4-1.2 1.2-2.4 2.4-3.5 3.5 0 0 0.1 0.1 0.2 0.2q3.3 3.3 6.6 6.6c0.1 0.1 0.2 0.1 0.3 0.2q0 0.6 0 1.2c-0.1-0.1-0.3-0.2-0.4-0.3q-3.4-3.5-6.9-6.9c-0.2-0.2-0.2-0.3-0.3-0.4-1.3 1.3-2.4 2.5-3.6 3.6 0 0 0.1 0.1 0.2 0.2 3.6 3.6 7.2 7.2 10.7 10.7 0.1 0.1 0.2 0.2 0.3 0.2q0 0.6 0 1.2c-0.2-0.2-0.3-0.3-0.4-0.4-3.7-3.7-7.3-7.3-11-11q-0.3-0.3-0.3-0.3c-1.2 1.2-2.4 2.4-3.5 3.5q0.2 0.1 0.3 0.3c3.7 3.7 7.3 7.3 11 11 1.3 1.3 2.7 2.7 4 4 0 0.4 0 0.7 0 1.1-0.1-0.1-0.3-0.2-0.4-0.3-2.2-2.2-4.3-4.3-6.5-6.5-0.1-0.1-0.2-0.3-0.2-0.5 0 0-0.1 0.1-0.2 0.2 0 4.8 0 9.5 0 14.4 0.2-0.2 0.3-0.3 0.4-0.4 2.2-2.2 4.3-4.3 6.4-6.4 0.1-0.1 0.3-0.2 0.4-0.3 0 0.4 0 0.7 0 1.1-0.2 0.2-0.3 0.3-0.4 0.4q-3.7 3.7-7.5 7.5c-2.4 2.4-4.7 4.7-7.1 7.1-0.1 0.1-0.2 0.3-0.3 0.3q1.8 1.8 3.6 3.6c0.1-0.2 0.2-0.3 0.3-0.5 3.7-3.7 7.3-7.4 11-11 0.1-0.1 0.3-0.2 0.4-0.3q0 0.6 0 1.2-0.1 0.1-0.3 0.3c-3.5 3.5-7.1 7.1-10.6 10.6q-0.1 0.1-0.3 0.3c1.2 1.2 2.4 2.4 3.5 3.5 0.1-0.1 0.2-0.2 0.4-0.3q3.5-3.5 6.9-6.9c0.1-0.1 0.3-0.2 0.4-0.3q0 0.6 0 1.2c-0.1 0.1-0.2 0.2-0.3 0.2q-3.3 3.3-6.6 6.6c-0.1 0.1-0.2 0.2-0.2 0.2 1.2 1.2 2.4 2.4 3.5 3.5q1.4-1.4 2.7-2.7c0.3-0.3 0.5-0.5 0.8-0.7 0 0.4 0 0.7 0 1.1-1 1-2 2-2.9 2.9 1 1 2 2 2.9 3 0 0.4 0 0.7 0 1.1-0.1-0.1-0.3-0.2-0.4-0.3q-1.3-1.4-2.7-2.7c-0.1-0.1-0.2-0.2-0.4-0.3 0 0.3 0 0.5 0 0.7q0 8.8 0 17.7c0 4.5 0 9 0 13.6 0 0.2 0 0.5 0.2 0.7q1.7 1.6 3.3 3.3 0 1 0 2.1c-1 1-1.9 2-2.9 3.1 0.9 0.9 1.9 1.9 2.9 2.9 0 0.4 0 0.7 0 1.1-0.7-0.7-1.4-1.3-2.1-2-0.5-0.5-1-1-1.4-1.4-1.2 1.2-2.4 2.4-3.5 3.5 0 0 0.1 0.1 0.2 0.2q3.3 3.3 6.6 6.6c0.1 0.1 0.2 0.1 0.3 0.2q0 0.6 0 1.2c-0.1-0.1-0.3-0.2-0.4-0.3q-3.4-3.5-6.9-6.9c-0.2-0.2-0.2-0.3-0.3-0.4-1.3 1.3-2.4 2.5-3.6 3.6 0 0 0.1 0.1 0.2 0.2 3.6 3.6 7.2 7.2 10.7 10.7 0.1 0.1 0.2 0.2 0.3 0.2q0 0.6 0 1.2c-0.2-0.2-0.3-0.3-0.4-0.4-3.7-3.7-7.3-7.3-11-11q-0.3-0.3-0.3-0.3c-1.2 1.2-2.4 2.4-3.5 3.5q0.2 0.1 0.3 0.3c3.7 3.7 7.3 7.3 11 11 1.3 1.3 2.7 2.7 4 4 0 0.4 0 0.7 0 1.1-0.1-0.1-0.3-0.2-0.4-0.3-2.2-2.2-4.3-4.3-6.5-6.5-0.1-0.1-0.2-0.3-0.2-0.5 0 0-0.1 0.1-0.2 0.2 0 4.8 0 9.5 0 14.3 0 0 0.1 0 0.1 0.1 0.1-0.1 0.2-0.3 0.3-0.4 2.2-2.2 4.3-4.3 6.4-6.4 0.1-0.1 0.3-0.2 0.4-0.3 0 0.4 0 0.7 0 1.1-0.2 0.2-0.3 0.3-0.4 0.4q-3.7 3.7-7.5 7.5c-2.4 2.4-4.7 4.7-7.1 7.1-0.1 0.1-0.2 0.3-0.3 0.3q1.8 1.8 3.6 3.6c0.1-0.2 0.2-0.3 0.3-0.5 3.7-3.7 7.3-7.4 11-11 0.1-0.1 0.3-0.2 0.4-0.3q0 0.6 0 1.2-0.1 0.1-0.3 0.3c-3.5 3.5-7.1 7.1-10.6 10.6q-0.1 0.1-0.3 0.3c1.2 1.2 2.4 2.4 3.5 3.5 0.1-0.1 0.2-0.2 0.4-0.3q3.5-3.5 6.9-6.9c0.1-0.1 0.3-0.2 0.4-0.3q0 0.6 0 1.2c-0.1 0.1-0.2 0.2-0.3 0.2q-3.3 3.3-6.6 6.6c-0.1 0.1-0.2 0.2-0.2 0.2 1.2 1.2 2.4 2.4 3.5 3.5q1.4-1.4 2.7-2.7c0.3-0.3 0.5-0.5 0.8-0.7 0 0.4 0 0.7 0 1.1-1 1-2 2-2.9 2.9 1 1 2 2 2.9 3 0 0.4 0 0.7 0 1.1-0.1-0.1-0.3-0.2-0.4-0.3q-1.3-1.4-2.7-2.7c-0.1-0.1-0.2-0.2-0.4-0.3 0 0.3 0 0.5 0 0.7q0 8.8 0 17.7c0 4.5 0 9 0 13.6 0 0.2 0 0.5 0.2 0.7q1.7 1.6 3.3 3.3 0 1 0 2.1c-1 1-1.9 2-2.9 3.1 0.9 0.9 1.9 1.9 2.9 2.9 0 0.4 0 0.7 0 1.1-0.7-0.7-1.4-1.3-2.1-2-0.5-0.5-1-1-1.4-1.4-1.2 1.2-2.4 2.4-3.5 3.5 0 0 0.1 0.1 0.2 0.2q3.3 3.3 6.6 6.6c0.1 0.1 0.2 0.1 0.3 0.2q0 0.6 0 1.2c-0.1-0.1-0.3-0.2-0.4-0.3q-3.4-3.5-6.9-6.9c-0.2-0.2-0.2-0.3-0.3-0.4-1.3 1.3-2.4 2.5-3.6 3.6 0 0 0.1 0.1 0.2 0.2 3.6 3.6 7.2 7.2 10.7 10.7 0.1 0.1 0.2 0.2 0.3 0.2q0 0.6 0 1.2c-0.2-0.2-0.3-0.3-0.4-0.4-3.7-3.7-7.3-7.3-11-11-0.2-0.2-0.2-0.3-0.3-0.4-1.3 1.3-2.4 2.4-3.7 3.7q0.2 0.2 0.3 0.3c2.6 2.6 5.2 5.2 7.7 7.7 0.1 0.1 0.2 0.3 0.3 0.4q-0.6 0-1.2 0c-0.1-0.1-0.2-0.3-0.3-0.4q-1.2-1.2-2.4-2.4c-0.1-0.2-0.2-0.3-0.3-0.5-0.1 0-0.2 0.1-0.2 0.2 0 1 0 2.1 0 3.2-0.3 0-0.5 0-0.8 0 0-1.3 0-2.5 0-3.8 0-0.2-0.1-0.5-0.2-0.6-1-1-1.9-2-2.9-2.9-0.1-0.1-0.1-0.1-0.3-0.2 0 0.3 0 0.4 0 0.6q0 3.5 0 6.9-0.6 0-1.2 0c0-0.4 0-0.8 0-1.3 0.1 0 0.2 0.1 0.3 0.2q0-3.3 0-6.6c-0.2 0-0.2 0.1-0.3 0.2 0-0.7 0-1.3 0-2 0.2 0.2 0.4 0.4 0.6 0.5 1.2-1.2 2.4-2.4 3.5-3.5-1.3-1.3-2.7-2.7-4-4.2 0-0.4 0-0.7 0-1.1 0.1 0.1 0.3 0.2 0.4 0.3 1.3 1.3 2.7 2.7 4 4q0.2 0.2 0.3 0.3 1.8-1.8 3.6-3.6c-0.3-0.3-0.7-0.6-1-0.9-2.4-2.4-4.9-4.9-7.3-7.3 0-0.4 0-0.7 0-1.1 0.2 0.1 0.3 0.2 0.4 0.3 2.7 2.7 5.4 5.4 8.2 8.2q0.2 0.1 0.3 0.3 1.8-1.8 3.6-3.6c-4.1-4.1-8.3-8.2-12.4-12.4 0-0.4 0-0.7 0-1.1 0.2 0.1 0.3 0.2 0.5 0.4q6.2 6.1 12.3 12.3c0.1 0.1 0.3 0.2 0.3 0.3 1.2-1.2 2.4-2.4 3.5-3.5-5.3-5.3-10.7-10.7-16.1-16.1-0.1 0.1-0.3 0.2-0.4 0.3 0-0.4 0-0.7 0-1.1 0-0.1 0.1-0.3 0.1-0.4 0-2.2 0-4.4 0-6.5 0-0.1 0-0.3-0.1-0.4q0-1 0-2.1c0.2 0.2 0.3 0.3 0.5 0.4 4-4 8-8 11.9-11.9-1.1-1.2-2.3-2.3-3.5-3.5-2.7 2.7-5.5 5.5-8.3 8.4-0.2-0.2-0.3-0.3-0.5-0.4 0-0.4 0-0.7 0-1.1 0.2 0.1 0.3 0.2 0.5 0.3 2.6-2.6 5.2-5.2 7.7-7.7-1.2-1.2-2.3-2.3-3.5-3.5-1.3 1.3-2.8 2.8-4.2 4.2-0.2-0.1-0.3-0.2-0.5-0.3q0-0.6 0-1.2c0.2 0.1 0.3 0.3 0.5 0.3q1.8-1.8 3.6-3.6c-1.1-1.1-2.3-2.3-3.5-3.5-0.2 0.2-0.3 0.3-0.5 0.5q0-1.1 0-2.1c0.1 0.1 0.2 0.1 0.4 0.2 0-0.3 0-0.4 0-0.6 0-2 0-4.1 0-6.1 0-0.3-0.1-0.5-0.4-0.7 0-0.4 0-0.7 0-1.1 0.1 0 0.2 0.1 0.4 0.2 0-0.2 0-0.4 0-0.5q0-3 0-6c0-0.3 0-0.6-0.4-0.8 0-0.4 0-0.7 0-1.1 0.1 0 0.2 0.1 0.4 0.2q0-0.3 0-0.6 0-3 0-6c0-0.3 0-0.7-0.4-0.8 0-0.4 0-0.7 0-1.1 0.1 0 0.2 0.1 0.3 0.2q0-3.3 0-6.6c-0.2 0-0.2 0.1-0.3 0.2 0-0.7 0-1.3 0-2 0.2 0.2 0.4 0.4 0.6 0.5 1.2-1.2 2.4-2.4 3.5-3.5-1.3-1.3-2.7-2.7-4-4.2 0-0.4 0-0.7 0-1.1 0.1 0.1 0.3 0.2 0.4 0.3 1.3 1.3 2.7 2.7 4 4q0.2 0.1 0.3 0.3 1.8-1.8 3.6-3.6c-0.3-0.3-0.7-0.6-1-0.9-2.4-2.4-4.9-4.9-7.3-7.3 0-0.4 0-0.7 0-1.1 0.2 0.1 0.3 0.2 0.4 0.3 2.7 2.7 5.4 5.4 8.2 8.2q0.2 0.1 0.3 0.3c1.2-1.2 2.4-2.4 3.6-3.5-4.8-4-9-8.2-13.1-12.3 0-0.4 0-0.7 0-1.1 0.2 0.1 0.3 0.2 0.5 0.4q6.2 6.1 12.3 12.3c0.1 0.1 0.3 0.2 0.3 0.3 1.2-1.2 2.4-2.4 3.5-3.5-5.3-5.4-10.7-10.7-16.1-16.1-0.1 0.1-0.3 0.2-0.4 0.3 0-0.4 0-0.7 0-1.1 0-0.1 0.1-0.3 0.1-0.4 0-2.2 0-4.4 0-6.5 0-0.1 0-0.3-0.1-0.4q0-1.1 0-2.1c0.2 0.2 0.3 0.3 0.5 0.4 4-4 8-8 11.9-11.9-1.2-1.2-2.3-2.3-3.5-3.5-2.7 2.7-5.5 5.5-8.3 8.4-0.2-1.4-0.4-1.5-0.5-1.7zm16.6-65.9q0-0.2 0-0.4 0.1 0.1 0.2 0.2-0.1 0.1-0.2 0.2zm-15.9-16.3c-0.1 0.1-0.3 0.2-0.4 0.3 0-0.4 0-0.7 0-1.1 0-0.1 0.1-0.3 0.1-0.4 0-2.2 0-4.4 0-6.5 0-0.1 0-0.3-0.1-0.4q0-1.1 0-2.1c0.2 0.2 0.3 0.3 0.5 0.4 4-4 8-8 11.9-11.9-1.1-1.2-2.3-2.3-3.5-3.5-2.7 2.7-5.5 5.5-8.3 8.4-0.2-0.2-0.3-0.3-0.5-0.4 0-0.4 0-0.7 0-1.1 0.2 0.1 0.3 0.2 0.5 0.3 2.6-2.6 5.2-5.2 7.7-7.7-1.2-1.2-2.3-2.3-3.5-3.5-1.3 1.3-2.8 2.8-4.2 4.2-0.2-0.1-0.3-0.2-0.5-0.3q0-0.6 0-1.2c0.2 0.1 0.3 0.3 0.5 0.3q1.8-1.8 3.6-3.6c-1.1-1.1-2.3-2.3-3.5-3.5-0.2 0.2-0.3 0.3-0.5 0.5q0-1 0-2.1c0.1 0.1 0.2 0.1 0.4 0.2 0-0.3 0-0.4 0-0.6 0-2 0-4.1 0-6.1 0-0.3-0.1-0.5-0.4-0.7 0-0.4 0-0.7 0-1.1 0.1 0 0.2 0.1 0.4 0.2 0-0.2 0-0.4 0-0.5q0-3 0-6c0-0.3 0-0.6-0.4-0.8 0-0.4 0-0.7 0-1.1 0.1 0 0.2 0.1 0.4 0.2q0-0.3 0-0.6 0-3 0-6c0-0.3 0-0.7-0.4-0.8 0-0.4 0-0.7 0-1.1 0.1 0 0.2 0.1 0.3 0.2q0-3.3 0-6.6c-0.2 0-0.2 0.1-0.3 0.2 0-0.7 0-1.3 0-2 0.2 0.2 0.4 0.4 0.6 0.5 1.2-1.2 2.4-2.4 3.5-3.5-1.3-1.3-2.7-2.7-4-4.2 0-0.4 0-0.7 0-1.1 0.1 0.1 0.3 0.2 0.4 0.3 1.3 1.3 2.7 2.7 4 4q0.2 0.1 0.3 0.3 1.8-1.8 3.6-3.6c-0.3-0.3-0.7-0.6-1-0.9-2.4-2.4-4.9-4.9-7.3-7.3 0-0.4 0-0.7 0-1.1 0.2 0.1 0.3 0.2 0.4 0.3 2.7 2.7 5.4 5.4 8.2 8.2q0.2 0.2 0.3 0.3 1.8-1.8 3.6-3.6c-4.2-4.2-8.4-8.4-12.6-12.5 0-0.4 0-0.7 0-1.1 0.2 0.1 0.3 0.2 0.5 0.4q6.2 6.2 12.3 12.3c0.1 0.1 0.3 0.2 0.3 0.3 1-1 2-2 3-3-1 1-1.9 2-2.9 3.1 0.9 0.9 1.9 1.9 2.9 2.9 0 0.4 0 0.7 0 1.1-0.7-0.7-1.4-1.3-2.1-2-0.5-0.5-1-1-1.4-1.4-1.2 1.2-2.4 2.4-3.5 3.5 0 0 0.1 0.1 0.2 0.2q3.3 3.3 6.6 6.6c0.1 0.1 0.2 0.1 0.3 0.2q0 0.6 0 1.2c-0.1-0.1-0.3-0.2-0.4-0.3q-3.4-3.5-6.9-6.9c-0.2-0.2-0.2-0.3-0.3-0.4-1.3 1.3-2.4 2.5-3.6 3.6 0 0 0.1 0.1 0.2 0.2 3.6 3.6 7.2 7.2 10.7 10.7 0.1 0.1 0.2 0.2 0.3 0.2q0 0.6 0 1.2c-0.2-0.2-0.3-0.3-0.4-0.4-3.7-3.7-7.3-7.3-11-11q-0.3-0.3-0.3-0.3c-1.2 1.2-2.4 2.4-3.5 3.5q0.2 0.1 0.3 0.3c3.7 3.7 7.3 7.3 11 11 1.3 1.3 2.7 2.7 4 4 0 0.4 0 0.7 0 1.1-0.1-0.1-0.3-0.2-0.4-0.3-2.2-2.2-4.3-4.3-6.5-6.5-0.1-0.1-0.2-0.3-0.2-0.5 0 0-0.1 0.1-0.2 0.2 0 4.8 0 9.5 0 14.3h0.1q0.2-0.2 0.3-0.3c2.2-2.2 4.3-4.3 6.4-6.4 0.1-0.1 0.3-0.2 0.4-0.3 0 0.4 0 0.7 0 1.1-0.2 0.2-0.3 0.3-0.4 0.4q-3.7 3.7-7.5 7.5c-2.4 2.4-4.7 4.7-7.1 7.1-0.1 0.1-0.2 0.3-0.3 0.3q1.8 1.8 3.6 3.6c0.1-0.2 0.2-0.3 0.3-0.5 3.7-3.7 7.3-7.4 11-11 0.1-0.1 0.3-0.2 0.4-0.3q0 0.6 0 1.2-0.1 0.1-0.3 0.3c-3.5 3.5-7.1 7.1-10.6 10.6q-0.1 0.1-0.3 0.3c1.2 1.2 2.4 2.4 3.5 3.5 0.1-0.1 0.2-0.2 0.4-0.3q3.5-3.5 6.9-6.9c0.1-0.1 0.3-0.2 0.4-0.3q0 0.6 0 1.2c-0.1 0.1-0.2 0.2-0.3 0.2q-3.3 3.3-6.6 6.6c-0.1 0.1-0.2 0.2-0.2 0.2 1.2 1.2 2.4 2.4 3.5 3.5 0.8-0.8 1.8-1.8 2.7-2.7 0.3-0.3 0.5-0.5 0.8-0.7 0 0.4 0 0.7 0 1.1-1 1-2 2-2.9 2.9 1 1 2 2 2.9 3 0 0.4 0 0.7 0 1.1-0.1-0.1-0.3-0.2-0.4-0.3q-1.3-1.4-2.7-2.7c-0.1-0.1-0.2-0.2-0.4-0.3 0 0.3 0 0.5 0 0.7q0 8.8 0 17.7c0 4.5 0 9 0 13.6 0 0.2 0 0.5 0.2 0.7q1.7 1.6 3.3 3.3 0 0.5 0 1c-5.2-5.2-10.6-10.6-15.9-15.9zm15.9-82.9q0-0.5 0-1 0.2 0.3 0.5 0.5-0.2 0.2-0.5 0.5zm-15.6-16.5c-0.1 0.1-0.3 0.2-0.4 0.3 0-0.4 0-0.7 0-1.1 0-0.1 0.1-0.3 0.1-0.4 0-2.2 0-4.4 0-6.5 0-0.1 0-0.3-0.1-0.4q0-1 0-2.1c0.2 0.2 0.3 0.3 0.5 0.4-0.1 0.1-0.2 0.3-0.2 0.5 0 2.5 0 4.9 0 7.4 0 0.2 0.1 0.5 0.3 0.7q1.4 1.4 2.7 2.7c0.1 0.1 0.2 0.2 0.3 0.2 0-4.8 0-9.6 0-14.5-0.1 0-0.2 0.1-0.2 0.1q0.8-0.8 1.5-1.5c-0.3 0.3-0.5 0.7-0.5 1.1 0 4.9 0 9.7 0 14.5 0 1 0.2 1.7 1 2.3 0.8 0.7 1.5 1.5 2.3 2.3 0-7.7 0-15.3 0-23q2.4-2.4 4.7-4.7c-1.1-1.2-2.3-2.3-3.5-3.5-2.7 2.7-5.5 5.5-8.3 8.4-0.2-0.2-0.3-0.3-0.5-0.4 0-0.4 0-0.7 0-1.1 0.2 0.1 0.3 0.2 0.5 0.3 2.6-2.6 5.2-5.2 7.7-7.7-1.2-1.2-2.3-2.3-3.5-3.5-1.3 1.3-2.8 2.8-4.2 4.2-0.2-0.1-0.3-0.2-0.5-0.3q0-0.6 0-1.2c0.2 0.1 0.3 0.3 0.5 0.3q1.8-1.8 3.6-3.6c-1.1-1.1-2.3-2.3-3.5-3.5-0.2 0.2-0.3 0.3-0.5 0.5q0-1 0-2.1c0.1 0.1 0.2 0.1 0.4 0.2 0-0.3 0-0.4 0-0.6q0-0.2 0-0.4c0.1 0 0.2-0.1 0.2-0.1q1.5-1.5 3-3c0.1-0.1 0.2-0.3 0.2-0.5q0-11.8 0-23.7c0-0.2 0-0.3-0.1-0.5-1.1-1.1-2.1-2.2-3.3-3.3q0 4.5 0 9c0-0.3 0-0.7-0.4-0.8 0-0.4 0-0.7 0-1.1 0.1 0 0.2 0.1 0.3 0.2q0-3.3 0-6.6c-0.2 0-0.2 0.1-0.3 0.2 0-0.7 0-1.3 0-2 0.2 0.2 0.4 0.4 0.6 0.5q0.2-0.2 0.3-0.3 0.1 0.1 0.1 0.1c3.7 3.7 7.3 7.3 11 11 1.3 1.3 2.7 2.7 4 4 0 0.4 0 0.7 0 1.1-0.1-0.1-0.3-0.2-0.4-0.3-2.2-2.2-4.3-4.3-6.5-6.5-0.1-0.1-0.2-0.3-0.2-0.5 0 0-0.1 0.1-0.2 0.2 0 4.8 0 9.5 0 14.3 0 0 0.1 0 0.1 0.1 0.1-0.1 0.2-0.3 0.3-0.4 2.2-2.2 4.3-4.3 6.4-6.4 0.1-0.1 0.3-0.2 0.4-0.3 0 0.4 0 0.7 0 1.1-0.2 0.2-0.3 0.3-0.4 0.4q-3.7 3.8-7.5 7.5c-2.4 2.4-4.7 4.7-7.1 7.1-0.1 0.1-0.2 0.3-0.3 0.3q1.8 1.8 3.6 3.6c0.1-0.2 0.2-0.3 0.3-0.5 3.7-3.7 7.3-7.4 11-11 0.1-0.1 0.3-0.2 0.4-0.3q0 0.6 0 1.2-0.1 0.2-0.3 0.3c-3.5 3.5-7.1 7.1-10.6 10.6q-0.1 0.2-0.3 0.3c1.2 1.2 2.4 2.4 3.5 3.5 0.1-0.1 0.2-0.2 0.4-0.3q3.5-3.4 6.9-6.9c0.1-0.1 0.3-0.2 0.4-0.3q0 0.6 0 1.2c-0.1 0.1-0.2 0.2-0.3 0.2q-3.3 3.3-6.6 6.6c-0.1 0.1-0.2 0.2-0.2 0.2 1.2 1.2 2.4 2.4 3.5 3.5 0.8-0.8 1.8-1.8 2.7-2.7 0.3-0.3 0.5-0.5 0.8-0.7 0 0.4 0 0.7 0 1.1-1 1-2 2-2.9 2.9 1 1 2 2 2.9 3 0 0.4 0 0.7 0 1.1-0.1-0.1-0.3-0.2-0.4-0.3q-1.3-1.3-2.7-2.7c-0.1-0.1-0.2-0.2-0.4-0.3 0 0.3 0 0.5 0 0.7q0 8.9 0 17.7c0 4.5 0 9 0 13.6 0 0.2 0 0.5 0.2 0.7q1.7 1.7 3.3 3.3 0 0.6 0 1.1c-5.2-5.1-10.4-10.4-15.6-15.5zm-0.2-42.1c0-0.4 0-0.7 0-1.1 0.1 0 0.2 0.1 0.4 0.2q0 0.8 0 1.6c0-0.3-0.1-0.5-0.4-0.7zm0-8.2c0-0.4 0-0.7 0-1.1 0.1 0 0.2 0.1 0.4 0.2q0 0.8 0 1.7c0-0.3 0-0.6-0.4-0.8zm0.9-17.4q-0.1-0.1-0.2-0.2c1-1 2.1-2.1 3.2-3.2q0.1 0.1 0.2 0.2c-1 1-2.1 2.1-3.2 3.2zm-0.8-7.4c0-0.4 0-0.7 0-1.1 0.1 0.1 0.3 0.2 0.4 0.3 1.3 1.3 2.7 2.7 4 4q0.2 0.2 0.3 0.3 0.1 0 0.1-0.1c3.6 3.6 7.2 7.2 10.7 10.7 0.1 0.1 0.2 0.2 0.3 0.2q0 0.6 0 1.2c-0.2-0.2-0.3-0.3-0.4-0.4-3.7-3.7-7.3-7.3-11-11-0.1-0.2-0.2-0.3-0.3-0.4q-0.2 0.2-0.3 0.3c-1.2-1.2-2.6-2.6-3.8-4zm4.8 3.4c-0.1-0.1-0.2-0.2-0.2-0.2 1.2-1.1 2.2-2.2 3.5-3.5q0.1 0.1 0.2 0.2-1.7 1.8-3.5 3.5zm2.5-4.4c-2.5-2.5-4.9-4.9-7.3-7.4 0-0.4 0-0.7 0-1.1-0.8-0.7-0.6-0.6-0.5-0.5 2.7 2.7 5.4 5.4 8.2 8.1q0.2 0.2 0.3 0.3c1.2-1.2 2.4-2.4 3.6-3.5-4.2-4.2-8.4-8.3-12.5-12.4 0-0.4 0-0.7 0-1.1 0.2 0.1 0.3 0.2 0.5 0.4q6.2 6.2 12.3 12.3c0.1 0.1 0.3 0.2 0.3 0.3 1.2-1.2 2.4-2.4 3.5-3.5-5.5-5.4-10.8-10.8-16.2-16.1-0.1 0-0.3 0.1-0.4 0.3 0-1.1 0-2.1 0-3.2q0.5 0 0.9 0c0 0.5 0 1.1 0 1.6 0 0.2 0.1 0.5 0.3 0.7 0.8 0.9 1.8 1.8 2.7 2.7 0 0 0.1 0.1 0.3 0.2 0-1.8 0-3.5 0-5.2 0.3 0 0.5 0 0.8 0 0 1.9 0 3.9 0 5.8q0.2 0.3 0.3 0.6c0.9 0.9 1.8 1.8 2.8 2.7 0.1 0.1 0.2 0.1 0.3 0.2q0-1.9 0-3.6 0-2.8 0-5.7c0.3 0 0.5 0 0.8 0 0 3.4 0 6.7 0 10 0 0.2 0.1 0.4 0.2 0.5q1.4 1.4 2.7 2.7c0.1 0.1 0.2 0.1 0.3 0.2 0-0.3 0-0.5 0-0.7q0-6.1 0-12.3 0-0.3 0-0.6c0.2 0 0.5 0 0.7 0 0 0.2 0 0.4 0 0.7 0 4.4 0 8.8 0 13.3 0 0.2 0 0.5 0.2 0.7q1.7 1.7 3.3 3.3 0 1.1 0 2.1c-1 1-1.9 2-2.9 3.1 0.9 0.9 1.9 1.9 2.9 2.9 0 0.4 0 0.7 0 1.1-0.7-0.7-1.4-1.3-2.1-2-0.5-0.5-1-1-1.4-1.4-1.2 1.2-2.4 2.4-3.5 3.5 0 0 0.1 0.1 0.2 0.2q3.3 3.3 6.6 6.6c0.1 0.1 0.2 0.1 0.3 0.2q0 0.6 0 1.2c-0.1-0.1-0.3-0.2-0.4-0.3q-3.4-3.4-6.9-6.9c-0.2-0.2-0.2-0.3-0.3-0.4q-0.1 0.1-0.1 0.1c-0.3-0.2-0.6-0.5-0.8-0.7zm-7 339.7c0.1 0 0.1 0 0.2-0.1q1.5-1.5 3-3c0.1-0.1 0.2-0.3 0.2-0.5 0-7.9 0-15.8 0-23.8 0-0.2-0.1-0.4-0.2-0.5q-1.5-1.5-3-3c0 0-0.1 0-0.2-0.1 0 10.4 0 20.7 0 31zm0-99.8c0.1 0 0.2-0.1 0.2-0.1q1.5-1.5 3-3c0.1-0.1 0.2-0.3 0.2-0.5q0-11.8 0-23.7c0-0.2-0.1-0.5-0.3-0.7-0.9-1-1.8-1.9-2.8-2.8-0.1-0.1-0.2-0.2-0.3-0.2 0 10.4 0 20.7 0 31zm0-130.8c0 10.4 0 20.7 0 31.1 0.1 0 0.1 0 0.2-0.1 1-1 2-2 3.1-3.1 0.1-0.1 0.2-0.3 0.2-0.5q0-11.8 0-23.7c0-0.2 0-0.3-0.1-0.5-1.2-1-2.2-2.1-3.4-3.2zm11.3 245.2q-1.5 1.5-3 3c-0.2 0.2-0.3 0.5-0.3 0.7 0 8 0 15.9 0 23.9 0 0.2 0.1 0.5 0.3 0.7q1.4 1.4 2.7 2.7 0.2 0.2 0.3 0.3c0-10.5 0-20.8 0-31.3zm0-268c0-10.5 0-20.8 0-31.3-1 1-1.9 1.9-2.9 2.9-0.3 0.3-0.4 0.6-0.4 1 0 7.7 0 15.5 0 23.2 0 0.7 0.2 1.2 0.7 1.7 0.9 0.7 1.7 1.5 2.6 2.5zm-0.1 99.8c0-10.5 0-20.8 0-31.3-1 1-1.9 1.9-2.9 2.9-0.3 0.3-0.4 0.6-0.4 1 0 7.3 0 14.7 0 22 0 0.7-0.2 1.5 0.1 2.1 0.3 0.6 0.9 1 1.4 1.5 0.7 0.5 1.2 1.1 1.8 1.8zm0.1 68.4c-1 1-1.8 1.9-2.8 2.8-0.4 0.3-0.5 0.7-0.5 1.2 0 1.9 0 3.9 0 5.8 0 5.9 0 11.8 0 17.6 0 0.4 0.1 0.7 0.4 0.9 0.7 0.7 1.5 1.5 2.2 2.2 0.2 0.2 0.4 0.5 0.6 0.7l0.1-0.1c0-10.3 0-20.6 0-31.1zm-4.3-72.6l0.1-0.1q0-11.4 0-22.8c-0.1 0-0.1 0-0.2 0.1-1 1-2 2-2.9 2.9-0.1 0.1-0.1 0.3-0.1 0.5 0 5.2 0 10.5 0 15.7 0 0.2 0.1 0.5 0.3 0.7 0.7 0.8 1.5 1.5 2.2 2.2 0.2 0.3 0.4 0.5 0.6 0.8zm0.1-122.8q-0.6 0.6-1.3 1.3 0.5-0.5 0.9-1c0.1-0.1 0.2-0.1 0.4-0.3zm-1.3 1.3c-0.4 0.5-0.9 1-1.5 1.5q0.8-0.8 1.5-1.5zm1.2 221.3c0 0 0.1-0.1 0.2-0.1q0-11.4 0-22.8c-0.1 0-0.1 0-0.2 0.1-1 1-2 2-2.9 2.9-0.2 0.1-0.2 0.3-0.2 0.5 0 5.3 0 10.5 0 15.8q0 0.3 0.3 0.6c0.6 0.7 1.2 1.2 1.8 1.9 0.3 0.3 0.7 0.7 1 1.1zm0.1 76.8c-0.1 0-0.1 0-0.2 0.1-1 1-2 2-2.9 2.9-0.1 0.2-0.1 0.4-0.1 0.6 0 5.2 0 10.5 0 15.7 0 0.2 0.1 0.5 0.3 0.7 0.7 0.8 1.5 1.5 2.2 2.2 0.2 0.2 0.4 0.5 0.7 0.8l0.1-0.1c-0.1-7.6-0.1-15.2-0.1-22.9zm-2.8-145.4c0 7.6 0 15.1 0 22.7q1.5-1.5 3-3c0.1-0.1 0.2-0.3 0.2-0.5q0-7.8 0-15.6c0-0.2 0-0.3-0.2-0.5-1-1-1.9-2-3-3.1zm0-99.8c0 7.6 0 15.1 0 22.6q1.5-1.5 3-3c0.1-0.1 0.2-0.3 0.2-0.5q0-7.8 0-15.6c0-0.2 0-0.3-0.2-0.5q-1.5-1.3-3-3zm-0.1 222.2c0.1-0.1 0.2-0.1 0.2-0.2 0.9-0.9 1.9-1.8 2.8-2.8 0.1-0.1 0.2-0.4 0.2-0.6 0-5.2 0-10.3 0-15.5 0-0.2-0.1-0.5-0.3-0.7-0.8-0.9-1.7-1.7-2.6-2.6-0.1-0.1-0.2-0.2-0.3-0.2 0 7.6 0 15 0 22.6zm0.1-299.3c1.1-1.1 2.1-2 3-3 0.1-0.1 0.2-0.3 0.2-0.5 0-5.2 0-10.4 0-15.5 0-0.2-0.1-0.5-0.3-0.7-0.7-0.7-1.4-1.4-2.2-2.2-0.2-0.2-0.4-0.5-0.6-0.7l-0.1 0.1q0 11.1 0 22.5zm-1.3 226.7c-0.2 0.2-0.3 0.2-0.3 0.3-0.9 0.9-1.8 1.7-2.6 2.7-0.2 0.2-0.3 0.5-0.3 0.7 0 2.5 0 4.9 0 7.4 0 0.2 0.1 0.5 0.3 0.7 0.8 0.9 1.8 1.8 2.6 2.7q0.2 0.2 0.3 0.3c0-5.1 0-9.9 0-14.8zm0-85.2c0-4.9 0-9.7 0-14.6-0.1 0.1-0.2 0.1-0.2 0.2-1 1-1.9 1.9-2.9 2.9-0.1 0.1-0.2 0.3-0.2 0.5 0 2.5 0 5 0 7.4 0 0.2 0.1 0.5 0.3 0.6 0.8 0.9 1.7 1.7 2.6 2.6 0.1 0.1 0.2 0.2 0.4 0.4zm0 199.6c0-4.9 0-9.7 0-14.6-0.1 0.1-0.2 0.1-0.2 0.2-1 1-1.9 1.9-2.9 2.9-0.1 0.1-0.2 0.3-0.2 0.5 0 2.5 0 5 0 7.4 0 0.2 0.1 0.5 0.3 0.6 0.8 0.9 1.7 1.7 2.6 2.6 0.1 0.1 0.2 0.2 0.4 0.4z"/><path fill-rule="evenodd" class="a" d="m-0.1 685.1c0-0.4 0-0.7 0-1.1 0.2 0.1 0.3 0.2 0.5 0.3 2.6-2.6 5.2-5.2 7.7-7.7-1.2-1.2-2.3-2.3-3.5-3.5-1.3 1.3-2.8 2.8-4.2 4.2-0.2-0.1-0.3-0.2-0.5-0.3q0-0.6 0-1.2c0.2 0.1 0.3 0.3 0.5 0.3q1.8-1.8 3.6-3.6c-1.1-1.1-2.3-2.3-3.5-3.5-0.2 0.2-0.3 0.3-0.5 0.5q0-1.1 0-2.1c0.1 0.1 0.2 0.1 0.4 0.2 0-0.3 0-0.4 0-0.6 0-2 0-4.1 0-6.1 0-0.3-0.1-0.5-0.4-0.7 0-0.4 0-0.7 0-1.1 0.1 0 0.2 0.1 0.4 0.2 0-0.2 0-0.4 0-0.5q0-3 0-6c0-0.3 0-0.6-0.4-0.8 0-0.4 0-0.7 0-1.1 0.1 0 0.2 0.1 0.4 0.2q0-0.3 0-0.6 0-3 0-6c0-0.3 0-0.7-0.4-0.8 0-0.4 0-0.7 0-1.1 0.1 0 0.2 0.1 0.3 0.2q0-3.3 0-6.6c-0.2 0-0.2 0.1-0.3 0.2 0-0.7 0-1.3 0-2 0.2 0.2 0.4 0.4 0.6 0.5 1.2-1.2 2.4-2.4 3.5-3.5-1.3-1.3-2.7-2.7-4-4.2 0-0.4 0-0.7 0-1.1 0.1 0.1 0.3 0.2 0.4 0.3 1.3 1.3 2.7 2.7 4 4q0.1 0.1 0.3 0.3 1.8-1.8 3.6-3.6c-0.3-0.3-0.7-0.6-1-0.9-2.4-2.4-4.9-4.9-7.3-7.3 0-0.4 0-0.7 0-1.1 0.2 0.1 0.3 0.2 0.4 0.3 2.7 2.7 5.4 5.4 8.2 8.2q0.1 0.1 0.3 0.3c1.2-1.2 2.4-2.4 3.6-3.5-4.1-4.1-8.3-8.2-12.4-12.4 0-0.4 0-0.7 0-1.1 0.2 0.1 0.3 0.2 0.5 0.4q6.1 6.1 12.3 12.3c0.1 0.1 0.3 0.2 0.3 0.3 1.2-1.2 2.4-2.4 3.5-3.5-5.3-5.3-10.7-10.7-16.1-16.1-0.1 0.1-0.3 0.2-0.4 0.3 0-0.4 0-0.7 0-1.1 0-0.1 0.1-0.3 0.1-0.4 0-2.2 0-4.4 0-6.5 0-0.1 0-0.3-0.1-0.4q0-1.1 0-2.1c0.2 0.2 0.3 0.3 0.5 0.4 4-4 8-8 11.9-11.9-1.1-1.2-2.3-2.3-3.5-3.5-2.7 2.7-5.5 5.5-8.3 8.4-0.2-0.2-0.3-0.3-0.5-0.4 0-0.4 0-0.7 0-1.1 0.2 0.1 0.3 0.2 0.5 0.3 2.6-2.6 5.2-5.2 7.7-7.7-1.2-1.2-2.3-2.3-3.5-3.5-1.3 1.3-2.8 2.8-4.2 4.2-0.2-0.1-0.3-0.2-0.5-0.3q0-0.6 0-1.2c0.2 0.1 0.3 0.3 0.5 0.3q1.8-1.8 3.6-3.6c-1.1-1.1-2.3-2.3-3.5-3.5-0.2 0.2-0.3 0.3-0.5 0.5q0-1.1 0-2.1c0.1 0.1 0.2 0.1 0.4 0.2 0-0.3 0-0.4 0-0.6 0-2 0-4.1 0-6.1 0-0.3-0.1-0.5-0.4-0.7 0-0.4 0-0.7 0-1.1 0.1 0 0.2 0.1 0.4 0.2 0-0.2 0-0.4 0-0.5q0-3 0-6c0-0.3 0-0.6-0.4-0.8 0-0.4 0-0.7 0-1.1 0.1 0 0.2 0.1 0.4 0.2q0-0.3 0-0.6 0-3 0-6c0-0.3 0-0.7-0.4-0.8 0-0.4 0-0.7 0-1.1 0.1 0 0.2 0.1 0.3 0.2q0-3.3 0-6.6c-0.2 0-0.2 0.1-0.3 0.2 0-0.7 0-1.3 0-2 0.2 0.2 0.4 0.4 0.6 0.5 1.2-1.2 2.4-2.4 3.5-3.5-1.3-1.3-2.7-2.7-4-4.2 0-0.4 0-0.7 0-1.1 0.1 0.1 0.3 0.2 0.4 0.3 1.3 1.3 2.7 2.7 4 4q0.2 0.1 0.3 0.3 1.8-1.8 3.6-3.6c-0.3-0.3-0.7-0.6-1-0.9-2.4-2.4-4.9-4.9-7.3-7.3 0-0.4 0-0.7 0-1.1 0.2 0.1 0.3 0.2 0.4 0.3 2.7 2.7 5.4 5.4 8.2 8.2q0.1 0.1 0.3 0.3 1.8-1.8 3.6-3.6c-4.1-4.1-8.3-8.2-12.4-12.4 0-0.4 0-0.7 0-1.1 0.2 0.1 0.3 0.2 0.5 0.4q6.1 6.1 12.3 12.3c0.1 0.1 0.3 0.2 0.3 0.3 1.2-1.2 2.4-2.4 3.5-3.5-5.3-5.3-10.7-10.7-16.1-16.1-0.1 0.1-0.3 0.2-0.4 0.3 0-0.4 0-0.7 0-1.1 0-0.1 0.1-0.3 0.1-0.4q0-0.2 0-0.4 0.1 0.2 0.2 0.3 1.4 1.3 2.7 2.7c0.1 0.1 0.2 0.2 0.3 0.2 0-4.7 0-9.4 0-14.2q0.4-0.4 0.8-0.8 0 0 0 0.1c0 4.9 0 9.7 0 14.5 0 1 0.2 1.7 1 2.3 0.8 0.8 1.5 1.5 2.3 2.4 0-7.6 0-15 0-22.6q0.5-0.5 0.9-0.9 0 0.1 0 0.2c0 7.7 0 15.5 0 23.2 0 0.7 0.2 1.2 0.7 1.7 0.9 0.7 1.7 1.6 2.6 2.5 0-10.4 0-20.5 0-30.9q0.4-0.4 0.8-0.8c-1.1-1.2-2.3-2.3-3.5-3.5-2.7 2.7-5.5 5.5-8.3 8.4-0.2-0.2-0.3-0.3-0.5-0.4 0-0.4 0-0.7 0-1.1 0.2 0.1 0.3 0.2 0.5 0.3 2.6-2.6 5.2-5.2 7.7-7.7-1.2-1.2-2.3-2.3-3.5-3.5-1.3 1.3-2.8 2.8-4.2 4.2-0.2-0.1-0.3-0.2-0.5-0.3q0-0.6 0-1.2c0.2 0.1 0.3 0.3 0.5 0.3q1.8-1.8 3.6-3.6c-1.1-1.1-2.3-2.3-3.5-3.5-0.2 0.2-0.3 0.3-0.5 0.5q0-1.1 0-2.1c0.1 0.1 0.2 0.1 0.4 0.2 0-0.3 0-0.4 0-0.6q0-0.4 0-0.8 1.5-1.4 2.9-2.9c0.1-0.1 0.2-0.3 0.2-0.5q0-11.9 0-23.7c0-0.2 0-0.3-0.1-0.5-1.1-1.1-2.1-2.1-3.3-3.3q0 0.5 0 1 0 0-0.1 0.1c0-0.7 0-1.3 0-2 0.2 0.2 0.4 0.4 0.6 0.5 1.2-1.2 2.4-2.4 3.5-3.5-1.3-1.3-2.7-2.7-4-4.2 0-0.4 0-0.7 0-1.1 0.1 0.1 0.3 0.2 0.4 0.3 1.3 1.3 2.7 2.7 4 4q0.1 0.1 0.3 0.3 1.8-1.8 3.6-3.6c-0.3-0.3-0.7-0.6-1-0.9-2.4-2.4-4.9-4.9-7.3-7.3 0-0.4 0-0.7 0-1.1 0.2 0.1 0.3 0.2 0.4 0.3 2.7 2.7 5.4 5.4 8.2 8.2q0.1 0.1 0.3 0.3c1.2-1.2 2.4-2.4 3.6-3.5-4.1-4.1-8.3-8.2-12.4-12.4 0-0.4 0-0.7 0-1.1 0.2 0.1 0.3 0.2 0.5 0.4q6.1 6.1 12.3 12.3c0.1 0.1 0.3 0.2 0.3 0.3 1.2-1.2 2.3-2.3 3.4-3.4q0 0.4 0 0.9c-1 1-1.9 2-2.9 3.1 0.9 0.9 1.9 1.9 2.9 2.9 0 0.4 0 0.7 0 1.1-0.7-0.7-1.4-1.3-2.1-2-0.5-0.5-1-1-1.4-1.4-1.2 1.2-2.4 2.4-3.5 3.5 0 0 0.1 0.1 0.2 0.2q3.3 3.3 6.6 6.6c0.1 0.1 0.2 0.1 0.3 0.2q0 0.6 0 1.2c-0.1-0.1-0.3-0.2-0.4-0.3q-3.5-3.5-6.9-6.9c-0.2-0.2-0.2-0.3-0.3-0.4-1.3 1.3-2.4 2.5-3.6 3.6 0 0 0.1 0.1 0.2 0.2 3.6 3.6 7.2 7.2 10.7 10.7 0.1 0.1 0.2 0.2 0.3 0.2q0 0.6 0 1.2c-0.2-0.2-0.3-0.3-0.4-0.4-3.7-3.7-7.3-7.3-11-11q-0.3-0.3-0.3-0.3c-1.2 1.2-2.4 2.4-3.5 3.5q0.2 0.1 0.3 0.3c3.7 3.7 7.3 7.3 11 11 1.3 1.3 2.7 2.7 4 4 0 0.4 0 0.7 0 1.1-0.1-0.1-0.3-0.2-0.4-0.3-2.2-2.2-4.3-4.3-6.5-6.5-0.1-0.1-0.2-0.3-0.2-0.5 0 0-0.1 0.1-0.2 0.2 0 4.8 0 9.5 0 14.3 0 0 0.1 0 0.1 0.1 0.1-0.1 0.2-0.3 0.3-0.4 2.2-2.2 4.3-4.3 6.4-6.4 0.1-0.1 0.3-0.2 0.4-0.3 0 0.4 0 0.7 0 1.1-0.2 0.2-0.3 0.3-0.4 0.4q-3.7 3.7-7.5 7.5c-2.4 2.4-4.7 4.7-7.1 7.1-0.1 0.1-0.2 0.3-0.3 0.3q1.8 1.8 3.6 3.6c0.1-0.2 0.2-0.3 0.3-0.5 3.7-3.7 7.3-7.4 11-11 0.1-0.1 0.3-0.2 0.4-0.3q0 0.6 0 1.2-0.1 0.1-0.3 0.3c-3.5 3.5-7.1 7.1-10.6 10.6q-0.1 0.1-0.3 0.3c1.2 1.2 2.4 2.4 3.5 3.5 0.1-0.1 0.2-0.2 0.4-0.3q3.5-3.5 6.9-6.9c0.1-0.1 0.3-0.2 0.4-0.3q0 0.6 0 1.2c-0.1 0.1-0.2 0.2-0.3 0.2q-3.3 3.3-6.6 6.6c-0.1 0.1-0.2 0.2-0.2 0.2 1.2 1.2 2.4 2.4 3.5 3.5 0.8-0.8 1.8-1.8 2.7-2.7 0.3-0.3 0.5-0.5 0.8-0.7 0 0.4 0 0.7 0 1.1-1 1-2 2-2.9 2.9 1 1 2 2 2.9 3 0 0.4 0 0.7 0 1.1-0.1-0.1-0.3-0.2-0.4-0.3q-1.3-1.4-2.7-2.7c-0.1-0.1-0.2-0.2-0.4-0.3 0 0.3 0 0.5 0 0.7q0 8.8 0 17.7c0 4.5 0 9 0 13.6 0 0.2 0 0.5 0.2 0.7q1.7 1.6 3.3 3.3 0 1 0 2.1c-1 1-1.9 2-2.9 3.1 0.9 0.9 1.9 1.9 2.9 2.9 0 0.4 0 0.7 0 1.1-0.7-0.7-1.4-1.3-2.1-2-0.5-0.5-1-1-1.4-1.4-1.2 1.2-2.4 2.4-3.5 3.5 0 0 0.1 0.1 0.2 0.2q3.3 3.3 6.6 6.6c0.1 0.1 0.2 0.1 0.3 0.2q0 0.6 0 1.2c-0.1-0.1-0.3-0.2-0.4-0.3q-3.4-3.5-6.9-6.9c-0.2-0.2-0.2-0.3-0.3-0.4-1.3 1.3-2.4 2.5-3.6 3.6 0 0 0.1 0.1 0.2 0.2 3.6 3.6 7.2 7.2 10.7 10.7 0.1 0.1 0.2 0.2 0.3 0.2q0 0.6 0 1.2c-0.2-0.2-0.3-0.3-0.4-0.4-3.7-3.7-7.3-7.3-11-11q-0.3-0.3-0.3-0.3c-1.2 1.2-2.4 2.4-3.5 3.5q0.2 0.1 0.3 0.3c3.7 3.7 7.3 7.3 11 11 1.3 1.3 2.7 2.7 4 4 0 0.4 0 0.7 0 1.1-0.1-0.1-0.3-0.2-0.4-0.3-2.2-2.2-4.3-4.3-6.5-6.5-0.1-0.1-0.2-0.3-0.2-0.5 0 0-0.1 0.1-0.2 0.2 0 4.8 0 9.5 0 14.3h0.1q0.2-0.2 0.3-0.3c2.2-2.2 4.3-4.3 6.4-6.4 0.1-0.1 0.3-0.2 0.4-0.3 0 0.4 0 0.7 0 1.1-0.2 0.2-0.3 0.3-0.4 0.4q-3.7 3.7-7.5 7.5c-2.4 2.4-4.7 4.7-7.1 7.1-0.1 0.1-0.2 0.3-0.3 0.3q1.8 1.8 3.6 3.6c0.1-0.2 0.2-0.3 0.3-0.5 3.7-3.7 7.3-7.4 11-11 0.1-0.1 0.3-0.2 0.4-0.3q0 0.6 0 1.2-0.1 0.2-0.3 0.3c-3.5 3.5-7.1 7.1-10.6 10.6q-0.1 0.1-0.3 0.3c1.2 1.2 2.4 2.4 3.5 3.5 0.1-0.1 0.2-0.2 0.4-0.3q3.5-3.5 6.9-6.9c0.1-0.1 0.3-0.2 0.4-0.3q0 0.6 0 1.2c-0.1 0.1-0.2 0.2-0.3 0.2q-3.3 3.3-6.6 6.6c-0.1 0.1-0.2 0.2-0.2 0.2 1.2 1.2 2.4 2.4 3.5 3.5 0.8-0.8 1.8-1.8 2.7-2.7 0.3-0.3 0.5-0.5 0.8-0.7 0 0.4 0 0.7 0 1.1-1 1-2 2-2.9 2.9 1 1 2 2 2.9 3 0 0.4 0 0.7 0 1.1-0.1-0.1-0.3-0.2-0.4-0.3q-1.3-1.3-2.7-2.7c-0.1-0.1-0.2-0.2-0.4-0.3 0 0.3 0 0.5 0 0.7q0 8.9 0 17.7c0 4.5 0 9 0 13.6 0 0.2 0 0.5 0.2 0.7q1.7 1.7 3.3 3.3 0 1.1 0 2.1c-1 1-1.9 2-2.9 3.1 0.9 0.9 1.9 1.9 2.9 2.9 0 0.4 0 0.7 0 1.1-0.7-0.7-1.4-1.3-2.1-2-0.5-0.5-1-1-1.4-1.4-1.2 1.2-2.4 2.4-3.5 3.5 0 0 0.1 0.1 0.2 0.2q3.3 3.3 6.6 6.6c0.1 0.1 0.2 0.1 0.3 0.2q0 0.6 0 1.2c-0.1-0.1-0.3-0.2-0.4-0.3q-3.4-3.4-6.9-6.9c-0.2-0.2-0.2-0.3-0.3-0.4-1.3 1.3-2.4 2.5-3.6 3.6 0 0 0.1 0.1 0.2 0.2 3.6 3.6 7.2 7.2 10.7 10.7 0.1 0.1 0.2 0.2 0.3 0.2q0 0.6 0 1.2c-0.2-0.2-0.3-0.3-0.4-0.4-3.7-3.7-7.3-7.3-11-11q-0.3-0.3-0.3-0.3c-1.2 1.2-2.4 2.4-3.5 3.5q0.2 0.2 0.3 0.3c3.7 3.7 7.3 7.3 11 11 1.3 1.3 2.7 2.7 4 4 0 0.4 0 0.7 0 1.1-0.1-0.1-0.3-0.2-0.4-0.3-2.2-2.2-4.3-4.3-6.5-6.5-0.1-0.1-0.2-0.3-0.2-0.5 0 0-0.1 0.1-0.2 0.2 0 4.8 0 9.5 0 14.4 0.2-0.2 0.3-0.3 0.4-0.4 2.2-2.2 4.3-4.3 6.4-6.4 0.1-0.1 0.3-0.2 0.4-0.3 0 0.4 0 0.7 0 1.1-0.2 0.2-0.3 0.3-0.4 0.4q-3.7 3.8-7.5 7.5c-2.4 2.4-4.7 4.7-7.1 7.1-0.1 0.1-0.2 0.3-0.3 0.3q1.8 1.8 3.6 3.6c0.1-0.2 0.2-0.3 0.3-0.5 3.7-3.7 7.3-7.4 11-11 0.1-0.1 0.3-0.2 0.4-0.3q0 0.6 0 1.2-0.1 0.2-0.3 0.3c-3.5 3.5-7.1 7.1-10.6 10.6q-0.1 0.2-0.3 0.3c1.2 1.2 2.4 2.4 3.5 3.5 0.1-0.1 0.2-0.2 0.4-0.3q3.5-3.4 6.9-6.9c0.1-0.1 0.3-0.2 0.4-0.3q0 0.6 0 1.2c-0.1 0.1-0.2 0.2-0.3 0.2q-3.3 3.3-6.6 6.6c-0.1 0.1-0.2 0.2-0.2 0.2 1.2 1.2 2.4 2.4 3.5 3.5q1.4-1.3 2.7-2.7c0.3-0.3 0.5-0.5 0.8-0.7 0 0.4 0 0.7 0 1.1-1 1-2 2-2.9 2.9 1 1 2 2 2.9 3 0 0.4 0 0.7 0 1.1-0.1-0.1-0.3-0.2-0.4-0.3q-1.3-1.3-2.7-2.7c-0.1-0.1-0.2-0.2-0.4-0.3 0 0.3 0 0.5 0 0.7q0 8.9 0 17.7c0 4.5 0 9 0 13.6 0 0.2 0 0.4 0.1 0.5-4.6-4.4-8.9-8.6-13.1-12.8-0.1 0.1-0.3 0.2-0.4 0.3 0-0.4 0-0.7 0-1.1 0-0.1 0.1-0.5 0.1-0.6 0 0.2 0.1 0.5 0.3 0.7 0.8 0.9 1.8 1.8 2.6 2.7q0.2 0.2 0.3 0.3c0-5.1 0-9.9 0-14.8-0.2 0.2-0.3 0.2-0.3 0.3-0.9 0.9-1.8 1.7-2.6 2.7-0.2 0.2-0.3 0.5-0.3 0.7q0 0.6 0 1.1c0-0.1 0-0.3-0.1-0.4q0-1 0-2.1c0.2 0.2 0.3 0.3 0.5 0.4 4-4 8-8 11.9-11.9-1.2-1.2-2.3-2.3-3.5-3.5-2.7 2.7-5.5 5.5-8.3 8.4-1.2-0.5-1.4-0.7-1.5-0.8zm1-183.1q-0.1-0.2-0.1-0.4c0-2.1 0-4.1 0-6.1 0.1 0.1 0.1 0.3 0.1 0.4 0 2 0 4 0 6.1zm-0.1-8.6q0.1 0.2 0.3 0.2-0.1 0.1-0.1 0.1c-0.1 0.1-0.2 0.3-0.2 0.5q0-0.4 0-0.8zm0.3 0.2c0.8-0.8 1.8-1.8 2.8-2.8 0 0 0.1-0.1 0.2-0.1q0 0.2 0 0.3-1.4 1.4-2.8 2.8-0.1-0.1-0.2-0.2zm0.3-26.1q0 0-0.1 0.1c0 0-0.1 0.1-0.2 0.1q0-3.1 0-6.1c0.2 0.1 0.3 0.3 0.3 0.6 0 1.7 0 3.5 0 5.3zm-0.4-6c0-0.4 0-0.7 0-1.1q0 0 0.1 0 0 0.6 0 1.2 0-0.1-0.1-0.1zm0.1-1.1q0-3.5 0-7c0.3 0.2 0.3 0.4 0.3 0.7q0 3 0 6c0 0.1 0 0.3 0 0.5q-0.2-0.1-0.3-0.2zm-0.1-7.1c0-0.4 0-0.7 0-1.1q0 0 0.1 0 0 0.6 0 1.2 0-0.1-0.1-0.1zm0.1-1.1q0-3.6 0-7.2c0.3 0.2 0.3 0.5 0.3 0.8q0 3 0 6 0 0.3 0 0.6-0.2-0.1-0.3-0.2zm-0.1-7.2c0-0.4 0-0.7 0-1.1q0.1 0 0.1 0 0 0.6 0 1.1 0 0-0.1 0zm0.1-1.1q0-3.1 0-6.3 0-0.1 0.2-0.1 0 3.3 0 6.6-0.1-0.1-0.2-0.2zm16.6-23.4q0-0.1 0-0.2 0.1 0.1 0.1 0.1 0 0-0.1 0.1zm-16-16.2c-0.1 0.1-0.3 0.2-0.4 0.3 0-1 0-2.1 0-3.2q0.5 0 0.9 0c0 0.5 0 1.1 0 1.6 0 0.2 0.1 0.5 0.3 0.7q1.4 1.3 2.7 2.7 0.2 0.1 0.3 0.3c0-1.8 0-3.5 0-5.2 0.3 0 0.5 0 0.8 0 0 1.9 0 3.9 0 5.8 0 0.2 0.1 0.5 0.2 0.6q1.3 1.3 2.7 2.7c0.1 0.1 0.2 0.1 0.3 0.2q0-2 0-3.6 0-2.9 0-5.7c0.3 0 0.5 0 0.8 0 0 3.4 0 6.7 0 10 0 0.2 0.1 0.4 0.2 0.5q1.4 1.3 2.7 2.7c0.1 0.1 0.2 0.1 0.3 0.2 0-0.3 0-0.5 0-0.7q0-6.2 0-12.3 0-0.3 0-0.6c0.2 0 0.5 0 0.7 0 0 0.2 0 0.4 0 0.7 0 4.4 0 8.8 0 13.3 0 0.2 0 0.5 0.2 0.7q1.7 1.6 3.3 3.3 0 0.5 0 1c-5.3-5.3-10.6-10.6-16-16zm12.6 311.2q1.9 1.8 3.8 3.7-0.2 0.2-0.4 0.4 0-0.3 0-0.6-1.6-1.6-3.3-3.3-0.1-0.1-0.1-0.2zm3.4 5.6c-1 1-1.9 2-2.9 3.1 0.9 0.9 1.9 1.9 2.9 2.9 0 0.4 0 0.7 0 1.1-0.7-0.7-1.4-1.3-2.1-2-0.5-0.5-1-1-1.4-1.4-1.2 1.2-2.4 2.4-3.5 3.5 0 0 0.1 0.1 0.2 0.2q3.3 3.3 6.6 6.6c0.1 0.1 0.2 0.1 0.3 0.2q0 0.6 0 1.2c-0.1-0.1-0.3-0.2-0.4-0.3q-3.4-3.4-6.9-6.9c-0.2-0.2-0.2-0.3-0.3-0.4-1.3 1.3-2.4 2.5-3.6 3.6 0 0 0.1 0.1 0.2 0.2 3.6 3.6 7.2 7.2 10.7 10.7 0.1 0.1 0.2 0.2 0.3 0.2q0 0.6 0 1.2c-0.2-0.2-0.3-0.3-0.4-0.4-3.7-3.7-7.3-7.3-11-11q-0.3-0.3-0.3-0.3c-1.2 1.2-2.4 2.4-3.5 3.5q0.2 0.2 0.3 0.3c3.7 3.7 7.3 7.3 11 11 1.3 1.3 2.7 2.7 4 4 0 0.4 0 0.7 0 1.1-0.1-0.1-0.3-0.2-0.4-0.3-2.2-2.2-4.3-4.3-6.5-6.5-0.1-0.1-0.2-0.3-0.2-0.5 0 0-0.1 0.1-0.2 0.2 0 4.8 0 9.5 0 14.3 0 0 0.1 0 0.1 0.1 0.1-0.1 0.2-0.3 0.3-0.4 2.2-2.2 4.3-4.3 6.4-6.4 0.1-0.1 0.3-0.2 0.4-0.3 0 0.4 0 0.7 0 1.1-0.2 0.2-0.3 0.3-0.4 0.4q-3.7 3.8-7.5 7.5c-2.4 2.4-4.7 4.7-7.1 7.1-0.1 0.1-0.2 0.3-0.3 0.3q1.8 1.8 3.6 3.6c0.1-0.2 0.2-0.3 0.3-0.5 3.7-3.7 7.3-7.4 11-11 0.1-0.1 0.3-0.2 0.4-0.3q0 0.6 0 1.2-0.1 0.2-0.3 0.3c-3.5 3.5-7.1 7.1-10.6 10.6q-0.1 0.2-0.3 0.3c1.2 1.2 2.3 2.3 3.4 3.4-2.7 2.7-5.5 5.5-8.3 8.4-0.2-0.2-0.3-0.3-0.5-0.4 0-0.4 0-0.7 0-1.1 0.2 0.1 0.3 0.2 0.5 0.3 2.6-2.6 5.2-5.2 7.7-7.7-1.2-1.2-2.3-2.3-3.5-3.5-1.3 1.3-2.8 2.8-4.2 4.2-0.2-0.1-0.3-0.2-0.5-0.3q0-0.6 0-1.2c0.2 0.1 0.3 0.3 0.5 0.3q1.8-1.8 3.6-3.6c-1.1-1.1-2.3-2.3-3.5-3.5-0.2 0.2-0.3 0.3-0.5 0.5q0-1.1 0-2.1c0.1 0.1 0.2 0.1 0.4 0.2 0-0.3 0-0.4 0-0.6q0-0.2 0-0.5 1.3-1.3 2.6-2.6c0.1-0.1 0.2-0.3 0.2-0.5 0-7.9 0-15.8 0-23.8 0-0.2-0.1-0.4-0.2-0.5q-1.3-1.3-2.7-2.7 0-0.1 0-0.2-0.1 0-0.2 0 0 0-0.1-0.1 0 0.1 0 0.3c0.1-0.1 0.1-0.1 0.1-0.2q0.1 0.1 0.2 0.2 0 3.2 0 6.4c-0.1-0.1-0.2-0.2-0.3-0.2 0 0.4 0 0.7 0 1.1 0.4 0.1 0.4 0.5 0.4 0.8q0 3 0 6 0 0.3 0 0.6c-0.2-0.1-0.3-0.2-0.4-0.2 0 0.4 0 0.7 0 1.1 0.4 0.2 0.4 0.5 0.4 0.8q0 3 0 6c0 0.1 0 0.3 0 0.5-0.2-0.1-0.3-0.2-0.4-0.2 0 0.4 0 0.7 0 1.1 0.3 0.2 0.4 0.4 0.4 0.7 0 1.8 0 3.8 0 5.6q-0.2 0.2-0.4 0.4c-0.1 0.1-0.1 0.1-0.2 0.1 0-10.4 0-20.7 0-31 0.1 0.1 0.2 0.1 0.2 0.1 0-0.6 0-1.1 0-1.7 0.2 0.2 0.4 0.4 0.6 0.5 1.2-1.2 2.4-2.4 3.5-3.5-1.3-1.3-2.7-2.7-4-4.2 0-0.4 0-0.7 0-1.1 0.1 0.1 0.3 0.2 0.4 0.3 1.3 1.3 2.7 2.7 4 4q0.2 0.1 0.3 0.3 1.8-1.8 3.6-3.6c-0.3-0.3-0.7-0.6-1-0.9-2.4-2.4-4.9-4.9-7.3-7.3 0-0.4 0-0.7 0-1.1 0.2 0.1 0.3 0.2 0.4 0.3 2.7 2.7 5.4 5.4 8.2 8.2q0.2 0.1 0.3 0.3c1.2-1.2 2.4-2.4 3.6-3.5-4.1-4.1-8.3-8.2-12.4-12.4 0-0.4 0-0.7 0-1.1 0.2 0.1 0.3 0.2 0.5 0.4q6.2 6.1 12.3 12.3c0.1 0.1 0.3 0.2 0.3 0.3 1.1-1.1 2.1-2.1 3.1-3.1q0 0.8 0 1.5zm-7.7 56.1q0.1 0.1 0.1 0.1 0 0 0 0 0 0-0.1-0.1zm0.5-0.2q3.5-3.4 6.9-6.9c0.1-0.1 0.3-0.2 0.4-0.3q0 0.6 0 1.2c-0.1 0.1-0.2 0.2-0.3 0.2q-3.3 3.3-6.6 6.6-0.1 0.1-0.1 0.1-0.4-0.3-0.7-0.6c0.1-0.1 0.2-0.2 0.4-0.3zm0.3 0.9c0.9 1 1.8 1.9 2.7 2.8q0 0-0.1 0.1c-0.8-0.9-1.8-1.9-2.7-2.8q0 0 0.1-0.1zm3.4 3.6q1.4-1.3 2.7-2.7c0.3-0.3 0.5-0.5 0.8-0.7 0 0.4 0 0.7 0 1.1-1 1-2 2-2.9 2.9 1 1 2 2 2.9 3 0 0.4 0 0.7 0 1.1-0.1-0.1-0.3-0.2-0.4-0.3q-1.3-1.3-2.7-2.7c-0.1-0.1-0.2-0.2-0.4-0.3 0 0.3 0 0.5 0 0.7q0 8.9 0 17.7c0 4.5 0 9 0 13.6q0 0.1 0 0.2c-4.2-4.2-8.4-8.4-12.7-12.7-0.1 0.1-0.3 0.2-0.4 0.3 0-0.4 0-0.7 0-1.1 0.8 0.9 1.7 1.7 2.6 2.6 0.1 0.1 0.2 0.2 0.4 0.4 0-4.9 0-9.6 0-14.5q0.5-0.5 0.9-0.9 0 0.1 0 0.2c0 5.2 0 10.5 0 15.7 0 0.2 0.1 0.5 0.3 0.7 0.7 0.8 1.5 1.5 2.2 2.2 0.2 0.2 0.4 0.5 0.7 0.8l0.1-0.1c-0.1-7.6-0.1-15.1-0.1-22.7q0.5-0.5 1-1-0.1 0.2-0.1 0.4c0 8 0 15.9 0 23.9 0 0.2 0.1 0.5 0.3 0.7q1.4 1.4 2.7 2.7 0.2 0.2 0.3 0.3c0-10.5 0-20.8 0-31.2q0.5-0.5 1-1 0.4 0.3 0.8 0.7zm-13 19.7c0-2.2 0-4.4 0-6.5 0-0.1 0-0.3-0.1-0.4q0-0.7 0-1.3 0 0-0.1 0.1c-0.1 0.1-0.2 0.3-0.2 0.5 0 2.5 0 5 0 7.4 0 0.2 0.1 0.5 0.3 0.6 0-0.1 0.1-0.3 0.1-0.4zm-0.1-9c0.2 0.2 0.3 0.3 0.4 0.4q-0.2 0.2-0.4 0.4 0-0.4 0-0.8zm0.5 0.4q1.3-1.3 2.5-2.5 0 0 0-0.1c-0.1 0.1-0.2 0.1-0.2 0.2-0.8 0.8-1.6 1.6-2.4 2.4q0.1 0 0.1 0zm12.6 22.5q1.7 1.7 3.4 3.4-0.1 0.1-0.2 0.2-1.5-1.6-3-3.1c-0.1-0.1-0.2-0.3-0.2-0.5zm3.5 3.8q0 1.1 0 2.1c-1 1-1.9 2-2.9 3.1 0.9 0.9 1.9 1.9 2.9 2.9 0 0.4 0 0.7 0 1.1-0.7-0.7-1.4-1.3-2.1-2-0.5-0.5-1-1-1.4-1.4-1.2 1.2-2.4 2.4-3.5 3.5 0 0 0.1 0.1 0.2 0.2q3.3 3.3 6.6 6.6c0.1 0.1 0.2 0.1 0.3 0.2q0 0.6 0 1.2c-0.1-0.1-0.3-0.2-0.4-0.3q-3.4-3.4-6.9-6.9c-0.2-0.2-0.2-0.3-0.3-0.4-1.3 1.3-2.4 2.5-3.6 3.6 0 0 0.1 0.1 0.2 0.2 3.6 3.6 7.2 7.2 10.7 10.7 0.1 0.1 0.2 0.2 0.3 0.2q0 0.6 0 1.2c-0.2-0.2-0.3-0.3-0.4-0.4-3.7-3.7-7.3-7.3-11-11-0.2-0.2-0.2-0.3-0.3-0.4-1.3 1.3-2.4 2.4-3.7 3.7q0.2 0.2 0.3 0.3c2.6 2.6 5.2 5.2 7.7 7.7 0.1 0.1 0.2 0.3 0.3 0.4q-0.6 0-1.2 0c-0.1-0.1-0.2-0.3-0.3-0.4q-1.2-1.2-2.4-2.4c-0.1-0.2-0.2-0.3-0.3-0.5-0.1 0-0.2 0.1-0.2 0.2 0 1 0 2.1 0 3.2-0.3 0-0.5 0-0.8 0 0-1.3 0-2.5 0-3.8 0-0.2-0.1-0.5-0.2-0.6-1-1-1.9-2-2.9-2.9-0.2-1.8-0.2-1.8-0.4-1.9 0 0.3 0 0.4 0 0.6q0 3.4 0 6.9-0.6 0-1.2 0c0-0.4 0-0.8 0-1.3 0.1 0 0.2 0.1 0.3 0.2q0-3.3 0-6.6c-0.2 0-0.2 0.1-0.3 0.2 0-0.7 0-1.3 0-2 0.2 0.2 0.4 0.4 0.6 0.5 1.2-1.2 2.4-2.4 3.5-3.5-1.3-1.3-2.7-2.7-4-4.2 0-0.4 0-0.7 0-1.1 0.1 0.1 0.3 0.2 0.4 0.3 1.3 1.3 2.7 2.7 4 4q0.2 0.2 0.3 0.3 1.8-1.8 3.6-3.6c-0.3-0.3-0.7-0.6-1-0.9-2.4-2.4-4.9-4.9-7.3-7.3 0-0.4 0-0.7 0-1.1 0.2 0.1 0.3 0.2 0.4 0.3 2.7 2.7 5.4 5.4 8.2 8.2q0.2 0.2 0.3 0.3 1.8-1.8 3.6-3.6c-4.1-4.1-8.3-8.2-12.4-12.4 0-0.4 0-0.7 0-1.1 0.2 0.1 0.3 0.2 0.5 0.4q6.2 6.1 12.3 12.3c0.1 0.1 0.3 0.2 0.3 0.3 1.1-1.1 2.3-2.3 3.3-3.3q0.2 0.1 0.3 0.2zm-16.6-151.6c0.1 0 0.2-0.1 0.2-0.1q1.5-1.5 3-3c0.1-0.1 0.2-0.3 0.2-0.5q0-11.9 0-23.7c0-0.2-0.1-0.5-0.3-0.7-0.9-1-1.8-1.9-2.8-2.8-0.1-0.1-0.2-0.2-0.3-0.2 0 10.3 0 20.6 0 31zm0-130.9c0 10.4 0 20.7 0 31.1 0.1 0 0.1 0 0.2-0.1 1-1 2-2 3.1-3.1 0.1-0.1 0.2-0.3 0.2-0.5q0-11.8 0-23.7c0-0.2 0-0.3-0.1-0.5-1.2-1-2.2-2-3.4-3.2zm11.3 245.4q-1.6 1.6-3.2 3.2 0.1-0.2 0.2-0.3 1.5-1.5 3-3 0 0 0 0.1zm0-299.1q-1.6 1.6-3.3 3.3c0-0.3 0.2-0.6 0.4-0.8 1-1 1.9-1.9 2.9-2.9q0 0.2 0 0.4zm-0.1 130.7c0-10.5 0-20.8 0-31.3-1 1-1.9 1.9-2.9 2.9-0.3 0.3-0.4 0.6-0.4 1 0 7.3 0 14.7 0 22 0 0.7-0.2 1.5 0.1 2.1 0.3 0.6 0.9 1 1.4 1.5 0.7 0.6 1.2 1.2 1.8 1.8zm0.1 68.5c-1 1-1.8 1.9-2.8 2.8-0.4 0.3-0.5 0.7-0.5 1.2 0 1.9 0 3.9 0 5.8 0 5.9 0 11.8 0 17.6 0 0.4 0.1 0.7 0.4 0.9 0.7 0.7 1.5 1.5 2.2 2.2 0.2 0.2 0.4 0.5 0.6 0.7l0.1-0.1c0-10.3 0-20.7 0-31.1zm-4.3-72.7l0.1-0.1q0-11.4 0-22.8c-0.1 0-0.1 0-0.2 0.1-1 1-2 2-2.9 2.9-0.1 0.1-0.1 0.4-0.1 0.5 0 5.2 0 10.5 0 15.7 0 0.2 0.1 0.5 0.3 0.7 0.7 0.8 1.5 1.5 2.2 2.2 0.2 0.3 0.4 0.6 0.6 0.8zm0.1-122.3q-1.6 1.6-3.3 3.3c0-0.4 0.2-0.7 0.5-1q1.2-1.2 2.4-2.4c0.1-0.1 0.2-0.1 0.4-0.3q0 0.2 0 0.4zm-0.1 222.1c0 0 0.1-0.1 0.2-0.1q0-11.4 0-22.8c-0.1 0-0.1 0-0.2 0.1-1 1-2 2-2.9 2.9-0.2 0.2-0.2 0.4-0.2 0.5 0 5.3 0 10.5 0 15.8q0 0.3 0.3 0.6c0.6 0.7 1.2 1.2 1.8 1.9 0.3 0.4 0.7 0.7 1 1.1zm0.1 77q-1.6 1.6-3.2 3.2c0-0.1 0-0.2 0.1-0.3 0.9-0.9 1.9-1.9 2.9-2.9 0.1-0.1 0.1-0.1 0.2-0.1q0 0 0 0.1zm-2.8-145.6c0 7.6 0 15.1 0 22.7q1.5-1.5 3-3c0.1-0.1 0.2-0.3 0.2-0.5q0-7.8 0-15.6c0-0.2 0-0.3-0.2-0.5-1-1-1.9-2-3-3.1zm0-99.7c0 7.6 0 15.1 0 22.6q1.5-1.5 3-3c0.1-0.1 0.2-0.3 0.2-0.5q0-7.8 0-15.6c0-0.2 0-0.3-0.2-0.5q-1.5-1.5-3-3zm-0.1 222.2c0.1-0.1 0.2-0.1 0.2-0.2 0.9-0.9 1.9-1.8 2.8-2.8 0.1-0.1 0.2-0.4 0.2-0.6 0-5.2 0-10.3 0-15.5 0-0.2-0.1-0.5-0.3-0.7-0.8-0.9-1.7-1.7-2.6-2.6-0.1-0.1-0.2-0.2-0.3-0.2 0 7.5 0 15 0 22.6zm0.1-299.4c1.1-1.1 2.1-2 3-3 0.1-0.1 0.2-0.3 0.2-0.5 0-5.2 0-10.4 0-15.5 0-0.2-0.1-0.5-0.3-0.7-0.7-0.7-1.4-1.4-2.2-2.2-0.2-0.2-0.4-0.5-0.6-0.7l-0.1 0.1c0 7.5 0 14.9 0 22.5zm-1.3 141.6c0-4.9 0-9.7 0-14.6-0.1 0.1-0.2 0.1-0.2 0.2-1 1-1.9 1.9-2.9 2.9-0.1 0.1-0.2 0.3-0.2 0.5 0 2.5 0 5 0 7.4 0 0.2 0.1 0.5 0.3 0.6 0.8 0.9 1.7 1.7 2.6 2.6 0.1 0.1 0.2 0.2 0.4 0.4z"/></svg>